<mxfile host="app.diagrams.net" modified="2022-04-02T15:01:46.855Z" agent="5.0 (X11)" etag="LVI3jGQygYdo-9TqT9KQ" version="17.4.0" type="github">
  <diagram id="qnFRUYKLidkErhUA6jka" name="Page-1">
    <mxGraphModel dx="1874" dy="676" grid="0" gridSize="10" guides="1" tooltips="1" connect="1" arrows="1" fold="1" page="1" pageScale="1" pageWidth="1169" pageHeight="827" background="#1B1D20" math="0" shadow="0">
      <root>
        <mxCell id="0" />
        <mxCell id="1" parent="0" />
        <mxCell id="ciX_IjcqIJmXs5fLBIkF-1" value="Container" style="rounded=1;whiteSpace=wrap;html=1;fontFamily=Verdana;fontSize=25;strokeColor=none;fillColor=#FCE0B0;" parent="1" vertex="1">
          <mxGeometry x="680" y="160" width="160" height="240" as="geometry" />
        </mxCell>
        <mxCell id="ciX_IjcqIJmXs5fLBIkF-2" value="Algorithms" style="rounded=1;whiteSpace=wrap;html=1;fontFamily=Verdana;fontSize=25;fillColor=#FCE0B0;" parent="1" vertex="1">
          <mxGeometry x="160" y="160" width="160" height="240" as="geometry" />
        </mxCell>
        <mxCell id="ciX_IjcqIJmXs5fLBIkF-3" value="" style="shape=flexArrow;endArrow=classic;html=1;rounded=0;exitX=1;exitY=0.25;exitDx=0;exitDy=0;entryX=0;entryY=0.25;entryDx=0;entryDy=0;strokeColor=#FCE0B0;fillColor=#2DAB2B;" parent="1" source="ciX_IjcqIJmXs5fLBIkF-2" target="ciX_IjcqIJmXs5fLBIkF-1" edge="1">
          <mxGeometry width="50" height="50" relative="1" as="geometry">
            <mxPoint x="310" y="275" as="sourcePoint" />
            <mxPoint x="698.98" y="275" as="targetPoint" />
          </mxGeometry>
        </mxCell>
        <mxCell id="ciX_IjcqIJmXs5fLBIkF-5" value="Iterators" style="rounded=1;whiteSpace=wrap;html=1;fontFamily=Verdana;fontSize=25;strokeColor=none;fillColor=#FCE0B0;" parent="1" vertex="1">
          <mxGeometry x="409" y="240" width="170" height="50" as="geometry" />
        </mxCell>
        <mxCell id="ciX_IjcqIJmXs5fLBIkF-7" value="" style="shape=flexArrow;endArrow=classic;html=1;rounded=0;fontFamily=Verdana;fontSize=25;strokeColor=#FCE0B0;fillColor=#2DAB2B;exitX=0.25;exitY=1;exitDx=0;exitDy=0;" parent="1" source="ciX_IjcqIJmXs5fLBIkF-1" edge="1">
          <mxGeometry width="50" height="50" relative="1" as="geometry">
            <mxPoint x="470" y="410" as="sourcePoint" />
            <mxPoint x="680" y="520" as="targetPoint" />
          </mxGeometry>
        </mxCell>
        <mxCell id="ciX_IjcqIJmXs5fLBIkF-8" value="" style="shape=flexArrow;endArrow=classic;html=1;rounded=0;fontFamily=Verdana;fontSize=25;strokeColor=#FCE0B0;fillColor=#2DAB2B;exitX=0.75;exitY=1;exitDx=0;exitDy=0;" parent="1" source="ciX_IjcqIJmXs5fLBIkF-1" edge="1">
          <mxGeometry width="50" height="50" relative="1" as="geometry">
            <mxPoint x="710" y="423.17073170731715" as="sourcePoint" />
            <mxPoint x="840" y="520" as="targetPoint" />
          </mxGeometry>
        </mxCell>
        <mxCell id="ciX_IjcqIJmXs5fLBIkF-9" value="Sequenced" style="rounded=1;whiteSpace=wrap;html=1;labelBorderColor=none;fontFamily=Verdana;fontSize=25;fillColor=#177BA6;" parent="1" vertex="1">
          <mxGeometry x="580" y="520" width="160" height="60" as="geometry" />
        </mxCell>
        <mxCell id="ciX_IjcqIJmXs5fLBIkF-11" value="Associative" style="rounded=1;whiteSpace=wrap;html=1;labelBorderColor=none;fontFamily=Verdana;fontSize=25;fillColor=#177BA6;" parent="1" vertex="1">
          <mxGeometry x="780" y="520" width="160" height="60" as="geometry" />
        </mxCell>
        <mxCell id="ciX_IjcqIJmXs5fLBIkF-12" value="" style="shape=flexArrow;endArrow=classic;html=1;rounded=0;fontFamily=Verdana;fontSize=25;strokeColor=#FCE0B0;fillColor=#2DAB2B;exitX=0.25;exitY=1;exitDx=0;exitDy=0;" parent="1" edge="1">
          <mxGeometry width="50" height="50" relative="1" as="geometry">
            <mxPoint x="493" y="300" as="sourcePoint" />
            <mxPoint x="493" y="340" as="targetPoint" />
          </mxGeometry>
        </mxCell>
        <mxCell id="ciX_IjcqIJmXs5fLBIkF-13" value="6 different levels" style="rounded=1;whiteSpace=wrap;html=1;fontFamily=Verdana;fontSize=25;strokeColor=none;fillColor=#177BA6;" parent="1" vertex="1">
          <mxGeometry x="409" y="350" width="170" height="80" as="geometry" />
        </mxCell>
        <mxCell id="2-tQ9rQwfUZNQqvG47G3-1" value="" style="shape=flexArrow;endArrow=classic;html=1;rounded=0;fontFamily=Verdana;fontSize=25;strokeColor=#FCE0B0;fillColor=#2DAB2B;entryX=1;entryY=0;entryDx=0;entryDy=0;" parent="1" target="ciX_IjcqIJmXs5fLBIkF-13" edge="1">
          <mxGeometry width="50" height="50" relative="1" as="geometry">
            <mxPoint x="670" y="280" as="sourcePoint" />
            <mxPoint x="503" y="350" as="targetPoint" />
          </mxGeometry>
        </mxCell>
        <mxCell id="2-tQ9rQwfUZNQqvG47G3-2" value="" style="shape=flexArrow;endArrow=classic;html=1;rounded=0;fontFamily=Verdana;fontSize=25;strokeColor=#FCE0B0;fillColor=#2DAB2B;entryX=0;entryY=0;entryDx=0;entryDy=0;" parent="1" target="ciX_IjcqIJmXs5fLBIkF-13" edge="1">
          <mxGeometry width="50" height="50" relative="1" as="geometry">
            <mxPoint x="330" y="280" as="sourcePoint" />
            <mxPoint x="589" y="360" as="targetPoint" />
          </mxGeometry>
        </mxCell>
        <mxCell id="2-tQ9rQwfUZNQqvG47G3-15" value="Utility" style="rounded=1;whiteSpace=wrap;html=1;fontFamily=Verdana;fontSize=25;strokeColor=none;fillColor=#FCE0B0;" parent="1" vertex="1">
          <mxGeometry x="409" y="590" width="171" height="60" as="geometry" />
        </mxCell>
      </root>
    </mxGraphModel>
  </diagram>
</mxfile>
